<svg version="1.0" xmlns="http://www.w3.org/2000/svg" width="385.000000pt" height="200.000000pt" viewBox="0 0 385.000000 200.000000" preserveAspectRatio="xMidYMid meet">
<g transform="translate(0.000000,200.000000) scale(0.100000,-0.100000)" fill="#007ac2" stroke="none">
<path d="M440 1504 c-234 -272 -425 -500 -425 -507 0 -7 191 -234 425 -505 l425 -491 1061 -1 1060 0 425 490 c233 270 425 495 427 500 2 5 -189 235 -424 510 l-428 500 -1060 0 -1061 -1 -425 -495z m2605 279 c55 -65 229 -270 388 -455 l288 -337 -388 -450 -388 -450 -1016 0 -1017 -1 -391 451 -391 452 28 33 c15 19 189 222 387 453 l360 420 1020 0 1020 1 100 -117z"/>
<path d="M2280 1070 l0 -410 60 0 60 0 0 225 c0 212 1 226 20 245 12 12 33 20 55 20 22 0 43 -8 55 -20 19 -19 20 -33 20 -245 l0 -225 61 0 60 0 -3 248 c-3 240 -4 248 -26 280 -48 66 -134 85 -224 47 -17 -7 -18 3 -18 119 l0 126 -60 0 -60 0 0 -410z"/>
<path d="M820 1065 l0 -405 55 0 55 0 0 185 0 185 54 0 c51 0 57 -3 81 -34 22 -29 27 -49 36 -152 17 -200 11 -184 74 -184 l55 0 0 38 c-1 183 -35 353 -74 368 -13 5 -10 13 14 43 66 81 61 230 -9 300 -48 48 -99 61 -235 61 l-106 0 0 -405z m229 291 c49 -26 66 -101 37 -170 -16 -39 -57 -59 -112 -54 l-39 3 -3 118 -3 117 46 0 c25 0 58 -6 74 -14z"/>
<path d="M1458 1250 c-56 -17 -89 -45 -115 -99 -49 -100 -43 -344 10 -422 41 -61 70 -74 157 -74 64 0 84 4 107 21 73 54 98 139 91 309 -5 123 -24 180 -74 227 -44 40 -116 56 -176 38z m99 -114 c28 -24 28 -24 31 -168 2 -121 0 -148 -15 -178 -17 -32 -22 -35 -63 -35 -41 0 -46 3 -63 35 -15 30 -17 57 -15 178 3 144 3 144 31 168 15 13 37 24 47 24 10 0 32 -11 47 -24z"/>
<path d="M1941 1250 c-49 -12 -83 -41 -111 -96 -24 -46 -25 -58 -25 -204 0 -142 2 -159 23 -203 32 -64 88 -97 166 -97 31 0 71 6 89 14 59 24 107 102 107 174 0 20 -5 22 -54 22 l-54 0 -11 -44 c-6 -24 -17 -49 -25 -55 -24 -20 -75 -16 -99 8 -20 20 -22 33 -25 167 -2 96 1 156 8 174 15 36 57 55 93 41 30 -12 42 -32 52 -84 l7 -37 54 0 c53 0 54 1 54 28 0 50 -30 120 -66 151 -51 45 -110 58 -183 41z"/>
<path d="M2897 1246 c-100 -37 -127 -103 -128 -304 0 -120 3 -139 24 -186 34 -73 74 -100 157 -104 48 -2 74 2 100 15 47 24 88 87 96 146 l7 47 -55 0 -55 0 -7 -38 c-3 -21 -15 -47 -26 -57 -22 -20 -74 -23 -96 -5 -17 15 -34 74 -34 123 l0 37 141 0 142 0 -6 83 c-7 94 -20 139 -54 185 -45 60 -134 85 -206 58z m114 -115 c23 -23 29 -39 29 -70 l0 -41 -80 0 c-79 0 -80 0 -80 25 0 40 27 94 52 105 37 14 48 12 79 -19z"/>
</g>
</svg>
