<svg version="1.0" xmlns="http://www.w3.org/2000/svg" width="384.000000pt" height="270.000000pt" viewBox="0 0 384.000000 270.000000" preserveAspectRatio="xMidYMid meet">
<g transform="translate(0.000000,270.000000) scale(0.100000,-0.100000)" fill="#e4010b" stroke="none">
<path d="M269 2677 c-118 -40 -183 -99 -237 -214 l-27 -58 0 -1045 c0 -1010 1 -1047 19 -1097 39 -105 125 -191 233 -235 l58 -23 1550 -3 c1021 -2 1577 1 1628 7 46 6 100 22 132 38 69 33 148 115 183 190 l27 58 3 1034 c3 1141 5 1091 -60 1193 -40 63 -89 105 -168 142 l-65 31 -1605 2 -1605 3 -66 -23z m3240 -261 c15 -8 32 -26 39 -41 9 -20 12 -272 12 -1028 0 -934 -2 -1003 -18 -1023 -9 -12 -27 -27 -39 -33 -16 -8 -454 -11 -1588 -11 l-1567 0 -34 34 -34 34 0 1005 0 1004 21 27 c12 15 31 32 43 36 11 5 722 9 1579 9 1330 1 1562 -1 1586 -13z"/>
<path d="M530 1350 l0 -882 398 5 c441 4 450 6 592 75 186 91 301 290 341 590 15 112 6 443 -15 532 -66 287 -197 452 -421 527 l-80 27 -407 4 -408 3 0 -881z m615 599 c80 -15 142 -48 194 -104 70 -76 95 -154 112 -350 26 -302 -22 -545 -130 -651 -70 -71 -156 -97 -293 -92 l-73 3 -3 603 -2 602 68 0 c38 0 95 -5 127 -11z"/>
<path d="M2062 1353 l3 -878 410 0 c396 0 413 1 488 23 269 78 407 253 395 503 -5 111 -43 195 -121 265 -48 43 -174 114 -204 114 -33 0 -15 22 58 69 91 60 160 140 185 214 18 56 20 184 3 255 -35 144 -112 227 -265 284 -57 22 -73 22 -507 26 l-447 3 2 -878z m665 592 c139 -41 190 -228 92 -340 -44 -50 -98 -67 -225 -68 l-109 -2 -3 213 -2 212 98 0 c58 0 119 -6 149 -15z m73 -758 c82 -36 114 -92 114 -197 1 -171 -100 -240 -351 -240 l-83 0 0 231 0 231 143 -4 c100 -4 152 -10 177 -21z"/>
</g>
</svg>
