<svg version="1.1" id="Capa_1" xmlns="http://www.w3.org/2000/svg" xmlns:xlink="http://www.w3.org/1999/xlink" x="0px" y="0px" viewBox="0 0 345.9 53.4" enable-background="new 0 0 345.9 53.4" xml:space="preserve">
<path fill="#54585A" d="M35.5,0H17.8C8,0,0,8,0,17.8v17.7c0,9.8,8,17.8,17.8,17.8h17.7c9.8,0,17.8-8,17.8-17.8V17.8 C53.4,8,45.4,0,35.5,0z M49.8,35.5c0,7.9-6.4,14.3-14.3,14.3H17.8c-7.9,0-14.3-6.4-14.3-14.3V17.8C3.5,10,10,3.5,17.8,3.5h17.7 c7.9,0,14.3,6.4,14.3,14.3V35.5z"/>
<path fill="#ED8B00" d="M31.8,21.9c1.6-2.9,0.7-6.5-2.2-8.1c-2.9-1.6-6.5-0.7-8.1,2.2c-1.7,2.9-0.7,6.5,2.2,8.1 C26.6,25.8,30.2,24.8,31.8,21.9"/>
<path fill="#ED8B00" d="M24.6,35c1.6-2.9,0.7-6.5-2.2-8.1c-2.9-1.6-6.5-0.7-8.1,2.2c-1.6,2.9-0.7,6.5,2.2,8.1 C19.3,38.9,22.9,37.9,24.6,35"/>
<path fill="#ED8B00" d="M28.8,35c1.6,2.9,5.3,3.8,8.1,2.2c2.8-1.6,3.8-5.3,2.2-8.1c-1.6-2.9-5.3-3.8-8.1-2.2 C28.1,28.5,27.1,32.2,28.8,35"/>
<path fill="#54585A" d="M100.4,17.5c-2.5-2.5-5.8-3.9-9.2-3.9c-3.4,0-6.8,1.4-9.2,3.9c-2.4,2.5-3.8,5.8-3.8,9.2 c0,3.4,1.3,6.7,3.8,9.2c2.4,2.5,5.7,3.9,9.2,3.9c3.5,0,6.8-1.4,9.2-3.9c2.4-2.5,3.8-5.8,3.8-9.2C104.2,23.3,102.9,20,100.4,17.5z M100.3,26.7c0,2.4-0.9,4.7-2.6,6.5c-1.7,1.7-4.1,2.7-6.5,2.7c-2.4,0-4.7-1-6.4-2.7c-1.7-1.7-2.7-4-2.7-6.5c0-2.4,1-4.7,2.7-6.5 c1.7-1.7,4-2.7,6.4-2.7c2.4,0,4.7,1,6.5,2.7C99.4,22,100.3,24.3,100.3,26.7z"/>
<path fill="#54585A" d="M119.2,30c4.1-0.8,6.7-3.9,6.7-8c0-4-2.7-8.4-8.6-8.4h-9.6v26.2h3.9V17.5h5.7c2.2,0,4.6,1.4,4.6,4.4 c0,2.1-1.5,4.5-4.6,4.5h-4.5v1.9l9.5,11.4l0,0h5.1L119.2,30z"/>
<path fill="#54585A" d="M150.3,29.8L150.3,29.8c-1.3,3.8-4.5,6.1-8.5,6.1c-2.4,0-4.6-1-6.3-2.7c-1.7-1.8-2.6-4.1-2.6-6.5 c0-2.5,0.9-4.8,2.6-6.6c1.7-1.8,3.9-2.7,6.3-2.7c3.9,0,6.9,2.1,8.2,5.8l0,0.1h3.8l0-0.1c-1.5-5.9-6.1-9.6-12.1-9.6 c-3.3,0-6.6,1.4-9,3.8c-2.4,2.5-3.7,5.8-3.7,9.3c0,3.4,1.3,6.7,3.7,9.2c2.4,2.5,5.5,3.9,9,3.9c5.9,0,10.8-3.9,12.3-9.9l0-0.1H150.3 z"/>
<polygon fill="#54585A" points="161.4,35.9 161.4,28.7 173.5,28.7 173.5,24.7 161.4,24.7 161.4,17.5 173.5,17.5 173.5,13.6 157.5,13.6 157.5,39.8 173.5,39.8 173.5,35.9"/>
<path fill="#54585A" d="M70.3,17.5h6v-3.9l-7.5,0c-4.9,0.5-8.5,4.6-8.5,9.5v16.7h3.9V28.6h10.4v-4H64.2l0-1.1 C64.6,20.8,65.7,17.5,70.3,17.5z"/>
<polygon fill="#54585A" points="199.4,13.6 199.2,13.6 199,13.8 189.2,28.3 179.3,13.8 179.2,13.6 178.9,13.6 178.4,13.6 177.8,13.6 177.8,14.1 177.8,39.3 177.8,39.8 178.4,39.8 178.9,39.8 179.4,39.8 179.4,39.3 179.4,16.5 188.5,30.1 188.7,30.4 188.9,30.4 189.4,30.4 189.7,30.4 189.8,30.1 199,16.5 199,39.3 199,39.8 199.5,39.8 200,39.8 200.5,39.8 200.5,39.3 200.5,14.1 200.5,13.6 200,13.6"/>
<polygon fill="#54585A" points="247.1,13.6 246.6,13.6 246.6,14.1 246.6,36.7 230.8,13.8 230.7,13.6 229.4,13.6 229.4,14.1 229.4,38.9 229.4,39.8 229.9,39.8 230.5,39.8 231,39.8 231,38.9 231,16.9 246.7,39.6 246.8,39.8 247.1,39.8 247.7,39.8 248.2,39.8 248.2,39.3 248.2,14.1 248.2,13.6 247.7,13.6"/>
<path fill="#54585A" d="M215.7,13.9l-0.1-0.3h-0.3h-0.6h-0.3l-0.1,0.3l-9.9,25.2l-0.3,0.7h0.7h0.6h0.3l0.1-0.3l3.2-8.1h11.8 l3.3,8.1l0.1,0.3h0.3h0.6h0.7l-0.3-0.7L215.7,13.9z M209.7,29.8l5.3-13.6l5.3,13.6H209.7z"/>
<path fill="#54585A" d="M263.4,13.9l-0.1-0.3h-0.3h-0.6H262l-0.1,0.3l-9.9,25.2l-0.3,0.7h0.7h0.6h0.3l0.1-0.3l3.2-8.1h11.8l3.3,8.1 l0.1,0.3h0.3h0.6h0.7l-0.3-0.7L263.4,13.9z M257.3,29.8l5.3-13.6l5.3,13.6H257.3z"/>
<path fill="#54585A" d="M285.9,28.4h-0.5V29v0.6V30h0.5h10.3c-1.1,4.5-5.8,8.1-10.5,8.1c-2.9,0-5.7-1.2-7.8-3.4 c-2.1-2.2-3.2-5.1-3.2-8.1c0-3,1.1-5.9,3.2-8.1c2.1-2.2,4.9-3.4,7.8-3.4c4.5,0,8.4,2.6,10,6.7l0.1,0.3h0.3h0.6h0.7l-0.2-0.7 c-1.6-4.8-6.3-8-11.6-8c-3.4,0-6.6,1.4-8.9,3.9c-2.4,2.5-3.7,5.8-3.7,9.2c0,3.5,1.3,6.8,3.7,9.2c2.4,2.5,5.6,3.9,8.9,3.9 c4.8,0,10.1-3.7,11.7-8.2c0.4-0.9,0.6-1.8,0.6-2.6l0-0.5h-0.5H285.9z"/>
<path fill="#54585A" d="M303.1,38.2V27.4h12.6h0.5v-0.5v-0.6v-0.5h-0.5h-12.6V15.1h12.6h0.5v-0.5V14v-0.5h-0.5h-13.7h-0.5V14v25.2 v0.5h0.5h0.1h13.6h0.5v-0.5v-0.5v-0.5h-0.5H303.1z"/>
<path fill="#54585A" d="M336.9,38.9L326,29h2.7c3.9,0,7.9-2.7,7.9-7.7c0-2-0.7-3.9-2-5.3c-1.4-1.6-3.5-2.4-5.9-2.4h-8.3h-0.3h-0.5 v0.5v0.3v24.9v0.5h0.5h0.5h0.5v-0.5V15.1h7.5c2,0,3.6,0.7,4.8,1.9c1,1.1,1.6,2.6,1.6,4.2c0,3-2,6.2-6.4,6.2h-4.8h-0.5V28v0.5v0.2 l0.2,0.2l11.9,10.8l0.1,0.1h0.2h0.8h1.3L336.9,38.9z"/>
<path fill="#54585A" d="M340.8,38.1v-4h1.7c0.4,0,0.7,0,0.9,0.1c0.2,0.1,0.3,0.2,0.5,0.4c0.1,0.2,0.2,0.4,0.2,0.6 c0,0.3-0.1,0.5-0.3,0.7c-0.2,0.2-0.4,0.3-0.8,0.4c0.2,0.1,0.3,0.2,0.4,0.3c0.1,0.1,0.3,0.3,0.5,0.6l0.5,0.8h-1l-0.6-0.9 c-0.2-0.3-0.3-0.5-0.4-0.6c-0.1-0.1-0.2-0.1-0.2-0.2c-0.1,0-0.2,0-0.4,0h-0.2v1.7H340.8z M341.6,35.8h0.6c0.4,0,0.6,0,0.7,0 c0.1,0,0.2-0.1,0.2-0.2c0.1-0.1,0.1-0.2,0.1-0.3c0-0.1,0-0.2-0.1-0.3c-0.1-0.1-0.2-0.1-0.3-0.2c-0.1,0-0.3,0-0.6,0h-0.6V35.8z"/>
<path fill="#54585A" d="M345.9,36.3c0,1.9-1.6,3.5-3.5,3.5c-1.9,0-3.5-1.6-3.5-3.5c0-1.9,1.6-3.5,3.5-3.5 C344.3,32.8,345.9,34.3,345.9,36.3z M342.4,39.2c1.6,0,3-1.3,3-3c0-1.6-1.3-3-3-3c-1.6,0-3,1.3-3,3 C339.4,37.9,340.7,39.2,342.4,39.2L342.4,39.2z"/>
</svg>
