<svg version="1.0" xmlns="http://www.w3.org/2000/svg" width="303.000000pt" height="200.000000pt" viewBox="0 0 303.000000 200.000000" preserveAspectRatio="xMidYMid meet">
<g transform="translate(0.000000,200.000000) scale(0.100000,-0.100000)" fill="#cc071e" stroke="none">
<path d="M1307 1966 c-53 -18 -106 -41 -116 -50 -20 -19 -48 -83 -202 -461 -54 -132 -103 -243 -111 -247 -18 -9 -348 -72 -352 -67 -2 2 64 172 146 378 161 404 171 443 117 449 -17 2 -37 -6 -57 -23 -25 -21 -58 -94 -193 -433 -89 -224 -163 -408 -164 -410 -1 -1 -78 -23 -171 -48 -105 -28 -176 -52 -188 -64 -18 -18 -18 -20 -2 -44 9 -14 33 -34 54 -45 20 -11 50 -36 66 -56 16 -21 48 -46 72 -56 l43 -20 -29 -82 c-16 -45 -63 -176 -105 -292 -90 -250 -95 -273 -66 -299 17 -16 25 -17 46 -8 13 6 32 23 41 37 9 14 68 166 131 338 63 171 119 317 126 323 13 11 355 89 362 82 2 -2 -27 -94 -65 -203 -75 -214 -150 -461 -150 -492 0 -10 35 -54 79 -97 62 -62 83 -77 99 -72 24 8 12 -21 128 311 143 412 221 619 236 626 96 43 127 64 168 115 24 31 59 68 76 84 41 35 57 65 49 90 -8 26 -43 34 -122 27 -49 -5 -64 -3 -60 6 3 7 62 157 131 334 126 321 143 384 110 397 -21 8 -17 9 -127 -28z"/>
<path d="M2845 1955 c-50 -19 -98 -45 -109 -57 -57 -70 -381 -777 -526 -1148 -18 -47 -36 -89 -41 -94 -19 -22 11 304 68 724 30 225 45 376 46 460 l2 125 -35 3 c-47 4 -246 -72 -265 -102 -67 -102 -552 -1646 -543 -1730 2 -16 10 -33 19 -39 25 -15 67 0 83 31 8 15 71 214 139 443 69 229 158 510 196 625 l71 209 -6 -100 c-3 -55 -14 -194 -25 -308 -38 -411 -35 -606 8 -661 119 -151 129 -161 157 -150 16 6 17 8 150 344 151 384 402 957 413 946 3 -2 -23 -143 -56 -313 -112 -575 -171 -911 -171 -976 0 -30 10 -43 85 -110 87 -78 104 -87 123 -64 5 6 67 298 137 647 69 349 155 768 190 930 35 162 67 312 71 333 13 77 -38 86 -181 32z"/>
<path d="M1224 851 c-12 -5 -31 -22 -44 -38 -18 -23 -21 -37 -17 -83 2 -30 7 -62 11 -71 5 -12 -9 -35 -48 -79 -63 -70 -80 -113 -73 -178 4 -36 12 -53 37 -75 29 -26 39 -29 80 -25 26 3 61 15 78 27 30 21 31 21 37 2 8 -28 45 -38 60 -17 9 12 10 28 2 59 -8 38 -7 47 17 82 18 26 26 49 24 70 -4 38 -28 44 -67 16 l-29 -21 -11 43 c-9 37 -8 45 10 70 78 106 87 145 47 192 -25 28 -79 40 -114 26z m53 -86 c6 -18 -25 -58 -38 -49 -11 6 -12 48 -2 57 12 12 33 7 40 -8z m-66 -316 c-43 -35 -57 8 -19 57 l23 28 9 -33 c8 -30 7 -36 -13 -52z"/>
</g>
</svg>
