<svg version="1.0" xmlns="http://www.w3.org/2000/svg" width="1176.000000pt" height="200.000000pt" viewBox="0 0 1176.000000 200.000000" preserveAspectRatio="xMidYMid meet">
<g transform="translate(0.000000,200.000000) scale(0.100000,-0.100000)" fill="#000000" stroke="none">
<path fill="#ec1b24" d="M585 1562 l-330 -197 188 -3 c140 -2 187 -6 187 -15 0 -6 -51 -177 -114 -379 l-113 -368 116 0 c135 0 185 11 208 46 9 14 65 177 124 362 60 184 112 339 116 343 5 5 95 10 202 11 l193 3 -217 195 c-120 107 -220 196 -224 197 -3 1 -154 -87 -336 -195z"/>
<path d="M3834 1261 c-107 -29 -172 -66 -244 -140 -76 -78 -135 -188 -175 -325 -64 -222 -56 -347 28 -442 77 -88 185 -120 370 -111 205 10 345 85 431 232 22 36 126 327 126 350 0 3 -107 4 -237 3 l-238 -3 -31 -95 -30 -95 93 -3 c53 -1 93 -7 93 -13 0 -20 -32 -84 -53 -108 -64 -69 -203 -82 -261 -24 -39 39 -42 94 -12 214 49 196 127 319 225 354 113 40 206 -9 189 -100 l-5 -25 147 0 147 0 7 38 c23 144 -24 234 -149 282 -87 33 -318 39 -421 11z"/>
<path d="M9915 1270 c-176 -37 -300 -141 -389 -325 -70 -145 -100 -260 -101 -385 0 -99 2 -108 31 -160 59 -105 148 -149 317 -157 215 -11 375 61 473 213 26 40 74 145 74 162 0 1 -63 2 -141 2 l-140 0 -15 -36 c-34 -81 -91 -124 -165 -124 -41 0 -93 23 -113 51 -54 78 41 398 148 497 71 65 167 82 212 37 21 -21 25 -33 23 -73 l-3 -47 137 -3 137 -3 10 26 c16 43 12 146 -9 191 -22 49 -79 98 -140 120 -53 19 -280 28 -346 14z"/>
<path d="M1006 1147 c-96 -305 -176 -539 -196 -567 -41 -57 -67 -64 -261 -68 l-176 -4 -33 -106 c-18 -59 -35 -115 -37 -124 -5 -17 9 -18 188 -18 325 0 432 21 521 100 70 61 107 146 227 523 62 192 115 355 118 363 4 12 -20 14 -155 14 l-161 0 -35 -113z"/>
<path d="M1526 1213 c-8 -27 -56 -176 -107 -333 -97 -300 -112 -376 -90 -457 21 -78 96 -140 203 -169 63 -17 221 -18 303 -3 134 25 247 104 299 212 14 28 78 212 141 408 63 197 118 364 121 373 5 14 -11 16 -147 16 l-154 0 -115 -358 c-133 -412 -133 -413 -227 -420 -56 -4 -61 -2 -82 24 -29 37 -30 36 88 404 54 168 101 315 105 328 l7 22 -165 0 -164 0 -16 -47z"/>
<path d="M2427 768 c-86 -271 -157 -496 -157 -500 0 -5 53 -8 119 -8 l119 0 71 222 c108 333 108 334 114 318 3 -8 24 -121 46 -250 23 -129 44 -247 47 -263 l6 -27 148 0 c82 0 151 4 154 9 3 5 76 224 161 487 86 264 158 485 160 492 3 9 -24 12 -114 12 l-117 0 -89 -275 c-49 -151 -91 -272 -94 -269 -3 2 -28 125 -55 272 l-51 267 -155 3 -155 2 -158 -492z"/>
<path d="M4591 1013 c-82 -254 -227 -704 -237 -736 -5 -16 5 -17 152 -15 l158 3 62 195 61 195 117 3 c102 2 116 1 116 -14 0 -9 -25 -93 -55 -187 -30 -93 -55 -176 -55 -184 0 -11 29 -13 153 -11 l152 3 21 65 c12 36 84 260 161 498 l140 432 -157 0 -157 0 -59 -185 -59 -185 -117 0 c-66 0 -118 4 -118 9 0 7 81 276 105 349 3 9 -31 12 -150 12 l-154 0 -80 -247z"/>
<path d="M5577 767 c-87 -270 -158 -495 -157 -499 0 -5 157 -8 348 -8 l348 0 33 103 c19 56 36 108 38 114 4 10 -39 13 -195 13 l-201 0 31 90 30 90 188 0 187 0 32 99 c17 54 31 101 31 105 0 3 -84 6 -186 6 -172 0 -185 1 -180 18 3 9 14 44 24 77 l18 60 199 5 199 5 27 85 c14 47 29 95 33 108 l7 22 -348 0 -348 0 -158 -493z"/>
<path d="M6615 1248 c-4 -12 -294 -915 -309 -966 l-8 -23 157 3 157 3 154 480 c84 264 156 488 159 498 6 16 -5 17 -150 17 -115 0 -157 -3 -160 -12z"/>
<path d="M7127 1253 c-6 -10 -317 -979 -317 -987 0 -3 54 -6 120 -6 l119 0 87 268 c47 147 89 271 92 277 3 5 21 -73 39 -175 18 -102 40 -227 49 -277 l16 -93 149 0 c131 0 149 2 158 18 5 9 77 228 161 487 84 259 155 476 157 483 4 9 -23 12 -114 12 l-119 0 -23 -72 c-98 -313 -156 -477 -162 -461 -3 10 -28 134 -55 276 l-48 257 -152 0 c-84 0 -155 -3 -157 -7z"/>
<path d="M7987 771 c-86 -269 -157 -494 -157 -500 0 -8 43 -11 147 -9 l147 3 61 189 60 188 82 -4 c139 -7 146 -29 83 -228 -22 -69 -40 -131 -40 -137 0 -10 35 -13 144 -13 l145 0 47 148 c66 208 62 270 -21 309 l-34 16 53 22 c109 44 173 120 202 238 24 95 14 146 -39 202 -26 27 -57 47 -82 54 -25 7 -153 11 -340 11 l-301 0 -157 -489z m578 290 c44 -9 62 -48 47 -99 -28 -94 -91 -131 -223 -132 l-87 0 34 108 c19 59 36 113 39 120 5 13 133 15 190 3z"/>
<path d="M9155 1248 c-4 -12 -294 -915 -309 -966 l-8 -23 157 3 157 3 154 480 c84 264 156 488 159 498 6 16 -6 17 -150 17 -115 0 -157 -3 -160 -12z"/>
<path d="M10497 767 c-86 -270 -157 -495 -157 -499 0 -5 69 -8 154 -8 l154 0 51 163 c29 89 57 178 64 197 l13 35 117 3 c64 1 117 -1 117 -6 0 -5 -27 -94 -60 -197 -33 -103 -60 -189 -60 -191 0 -2 69 -4 154 -4 l154 0 51 153 c101 309 271 835 271 841 0 4 -70 5 -156 4 l-156 -3 -58 -180 -58 -180 -121 -3 c-94 -2 -120 0 -116 10 20 59 105 341 105 348 0 6 -62 10 -152 10 l-153 0 -158 -493z"/>
</g>
</svg>
