<svg version="1.0" xmlns="http://www.w3.org/2000/svg" width="1617.000000pt" height="270.000000pt" viewBox="0 0 1617.000000 270.000000" preserveAspectRatio="xMidYMid meet">
<g transform="translate(0.000000,270.000000) scale(0.100000,-0.100000)" fill="#000000" stroke="none">
<path d="M14433 2690 c-611 -78 -1117 -446 -1283 -934 -43 -126 -60 -232 -60 -376 0 -354 130 -662 389 -920 214 -213 495 -360 806 -420 58 -11 113 -20 121 -20 12 0 14 34 14 214 l0 213 -42 7 c-71 11 -248 75 -325 116 -334 180 -528 495 -509 825 7 121 25 193 77 304 123 263 377 461 697 543 153 39 356 48 507 24 684 -112 1072 -724 804 -1271 -122 -251 -386 -451 -696 -528 l-83 -20 0 -214 0 -214 48 6 c88 12 257 57 347 92 371 142 655 390 811 708 84 173 106 264 111 480 4 141 2 199 -11 268 -49 257 -182 496 -386 691 -229 217 -500 350 -841 412 -101 18 -396 26 -496 14z"/>
<path d="M11056 2665 c-126 -18 -270 -55 -394 -101 -377 -141 -683 -408 -832 -726 -42 -90 -84 -232 -95 -323 l-7 -55 235 0 236 0 11 43 c44 177 110 289 249 427 155 154 302 234 541 297 132 35 381 43 531 18 231 -38 431 -130 602 -278 l58 -50 27 25 c15 13 89 80 165 148 l138 123 -28 29 c-65 69 -242 190 -368 252 -151 75 -272 116 -440 152 -152 32 -469 42 -629 19z"/>
<path d="M0 1345 l0 -1285 215 0 215 0 2 879 3 879 486 -779 486 -780 122 195 c66 107 121 200 120 207 0 8 -273 453 -607 989 l-607 975 -217 3 -218 2 0 -1285z"/>
<path d="M2372 2618 c-8 -11 -657 -1069 -714 -1164 l-19 -32 122 -193 c67 -107 123 -195 124 -197 1 -1 112 173 246 388 l244 390 5 -872 5 -873 213 -3 212 -2 0 1285 0 1285 -214 0 c-159 0 -216 -3 -224 -12z"/>
<path d="M4554 2613 c3 -10 148 -315 321 -677 173 -362 315 -660 315 -662 0 -2 -191 -4 -425 -4 -234 0 -425 2 -425 5 0 3 47 100 105 215 58 115 105 215 105 222 0 15 -222 468 -229 468 -5 0 -1078 -2080 -1089 -2111 -2 -6 92 -8 239 -7 l242 3 204 398 205 397 637 0 636 0 200 -400 200 -400 258 0 258 0 -380 753 c-209 413 -501 991 -649 1282 l-269 530 -232 3 c-219 2 -232 1 -227 -15z"/>
<path d="M6660 1345 l0 -1285 215 0 215 0 0 955 c0 525 3 955 8 954 4 0 401 -429 882 -952 l875 -952 163 -3 162 -2 -2 158 -3 159 -1039 1127 -1039 1126 -218 0 -219 0 0 -1285z"/>
<path d="M8750 2002 l0 -627 215 -215 215 -215 0 843 0 842 -215 0 -215 0 0 -628z"/>
<path d="M11270 1250 l0 -210 458 -2 457 -3 0 -125 c-1 -108 -4 -131 -22 -166 -136 -259 -763 -402 -1224 -278 -154 41 -307 120 -425 219 -113 95 -180 181 -263 335 -7 13 -47 15 -246 18 l-238 2 6 -34 c9 -55 73 -204 125 -290 245 -407 716 -668 1271 -706 166 -11 387 1 555 30 426 74 767 299 867 573 22 60 23 75 27 455 l3 392 -675 0 -676 0 0 -210z"/>
</g>
</svg>
